<?xml version="1.0" encoding="UTF-8"?>
<!DOCTYPE svg PUBLIC "-//W3C//DTD SVG 1.1//EN" "http://www.w3.org/Graphics/SVG/1.1/DTD/svg11.dtd">
<!-- Creator: CorelDRAW 2021 (64-Bit) -->
<svg xmlns="http://www.w3.org/2000/svg" xml:space="preserve" width="11.3116mm" height="10.5834mm" version="1.1" style="shape-rendering:geometricPrecision; text-rendering:geometricPrecision; image-rendering:optimizeQuality; fill-rule:evenodd; clip-rule:evenodd"
viewBox="0 0 1114.47 1042.72"
 xmlns:xlink="http://www.w3.org/1999/xlink"
 xmlns:xodm="http://www.corel.com/coreldraw/odm/2003">
 <defs>
  <style type="text/css">
   <![CDATA[
    .fil35 {fill:none}
    .fil0 {fill:white}
    .fil7 {fill:#059459;fill-rule:nonzero}
    .fil3 {fill:#069459;fill-rule:nonzero}
    .fil8 {fill:#06945A;fill-rule:nonzero}
    .fil19 {fill:#07945B;fill-rule:nonzero}
    .fil9 {fill:#323031;fill-rule:nonzero}
    .fil4 {fill:#333031;fill-rule:nonzero}
    .fil13 {fill:#333133;fill-rule:nonzero}
    .fil10 {fill:#343032;fill-rule:nonzero}
    .fil6 {fill:#418C9F;fill-rule:nonzero}
    .fil11 {fill:#418D9F;fill-rule:nonzero}
    .fil25 {fill:#66B1B0;fill-rule:nonzero}
    .fil12 {fill:#67B2B1;fill-rule:nonzero}
    .fil15 {fill:#6AB3B2;fill-rule:nonzero}
    .fil33 {fill:#BA4C51;fill-rule:nonzero}
    .fil31 {fill:#C0444A;fill-rule:nonzero}
    .fil24 {fill:#C24349;fill-rule:nonzero}
    .fil17 {fill:#C34046;fill-rule:nonzero}
    .fil21 {fill:#C43F45;fill-rule:nonzero}
    .fil27 {fill:#C44046;fill-rule:nonzero}
    .fil23 {fill:#C44147;fill-rule:nonzero}
    .fil16 {fill:#C44248;fill-rule:nonzero}
    .fil26 {fill:#C53E45;fill-rule:nonzero}
    .fil20 {fill:#C54248;fill-rule:nonzero}
    .fil22 {fill:#C63E44;fill-rule:nonzero}
    .fil28 {fill:#C64147;fill-rule:nonzero}
    .fil18 {fill:#C64248;fill-rule:nonzero}
    .fil29 {fill:#C73D44;fill-rule:nonzero}
    .fil32 {fill:#C73E44;fill-rule:nonzero}
    .fil30 {fill:#CA3C43;fill-rule:nonzero}
    .fil34 {fill:#CBE4E3;fill-rule:nonzero}
    .fil1 {fill:#D6373E;fill-rule:nonzero}
    .fil5 {fill:#D7373E;fill-rule:nonzero}
    .fil2 {fill:#ECEF81;fill-rule:nonzero}
    .fil14 {fill:#FDFDFD;fill-rule:nonzero}
   ]]>
  </style>
   <clipPath id="id0">
    <path d="M557.23 0c307.75,0 557.23,233.42 557.23,521.36 0,287.94 -249.48,521.36 -557.23,521.36 -307.75,0 -557.23,-233.42 -557.23,-521.36 0,-287.94 249.48,-521.36 557.23,-521.36z"/>
   </clipPath>
 </defs>
 <g id="Layer_x0020_1">
  <metadata id="CorelCorpID_0Corel-Layer"/>
  <path class="fil0" d="M557.23 0c307.75,0 557.23,233.42 557.23,521.36 0,287.94 -249.48,521.36 -557.23,521.36 -307.75,0 -557.23,-233.42 -557.23,-521.36 0,-287.94 249.48,-521.36 557.23,-521.36z"/>
  <g style="clip-path:url(#id0)">
   <g id="_1961222277872">
    <g id="logo_x0020_2.svg">
     <path id="_1" class="fil1" d="M956.78 208.65l3.73 1.69 5.59 8.46 18.62 33.85 11.18 23.7 8.38 21.15 8.37 23.7 7.46 27.92 3.72 20.32 2.79 19.47 0.94 12.69 0 37.24 -1.86 22 -3.72 22.85 -7.46 30.47 -7.45 22 -11.17 24.54 -13.04 24.54 -9.31 16.08 -12.11 17.77 -11.18 15.23 -9.31 11.85 -9.31 11.01 -8.38 9.3 -8.38 8.47 -1.86 2.53 -1.85 0 -1.87 3.39 -10.24 10.16 -9.32 8.46 -6.51 6.77 -1.86 0 -1.87 3.38 -1.86 0 -1.86 3.39 -7.45 5.92 -7.45 6.77 -7.46 5.93 -12.1 9.31 -13.04 10.15 -10.25 7.62 -14.9 11.01 -17.7 11.85 -11.18 7.62 -12.11 7.62 -14.9 9.31 -13.97 9.31 -21.42 12.69 -17.7 10.16 -24.22 13.54 -6.52 5.08 -24.22 33.01 -6.51 8.46 -13.97 18.62 -10.25 13.54 -4.66 5.07 -5.59 -2.53 -13.97 -8.46 -17.7 -10.16 -24.22 -14.38 -10.25 -5.08 -5.59 -1.69 -12.11 -0.85 -37.25 -0.84 -35.39 -1.69 -40.98 -4.24 -27.02 -3.38 -36.32 -6.77 -32.6 -7.63 -33.53 -10.15 -25.14 -9.31 -27.02 -11.85 -24.21 -12.69 -15.83 -9.31 -15.83 -10.16 -16.77 -11.85 -13.97 -9.3 -3.72 -2.54 1.86 -4.24 7.45 -6.77 5.6 -4.23 14.9 -19.47 13.97 -19.47 21.42 -29.62 9.32 -12.7 15.83 -22 8.37 -12.7 2.8 0.85 12.11 16.08 16.76 22.86 17.7 24.54 13.04 18.61 14.9 20.32 5.59 9.31 -0.93 2.53 -25.14 0.01 -8.38 -8.46 -11.17 -15.23 -4.66 -5.08 -4.66 0 -12.11 7.62 -13.03 6.77 -4.66 -0.84 -13.97 -7.62 -12.1 -6.78 -4.66 4.24 -6.52 10.16 -9.31 12.69 -2.8 3.39 -12.1 0.85 4.65 5.07 18.63 12.69 22.35 13.55 23.29 11.84 30.73 14.39 33.53 11.84 24.22 6.77 26.08 5.93 33.53 5.92 40.05 5.07 40.05 3.39 30.73 1.69 48.43 0.85 7.45 2.53 16.77 10.16 13.03 8.46 13.97 7.62 3.72 -1.69 7.45 -9.3 8.38 -11.85 11.18 -15.23 11.17 -14.38 8.38 -8.46 19.56 -11.01 23.28 -12.7 17.7 -10.16 27.94 -16.92 15.83 -10.16 4.66 -3.39 -0.94 -5.07 -0.93 -4.24 -9.32 3.39 -14.9 3.38 -14.91 0.01 -13.03 -2.54 -9.32 -4.24 -4.65 -3.38 -4.66 -6.77 -0.93 -2.54 0 -9.31 4.65 -8.46 7.46 -5.92 10.24 -4.24 7.46 -1.69 8.37 -0.84 11.18 0 12.1 1.68 10.25 3.39 0 -9.31 -3.72 -6.77 -5.59 -3.39 -15.83 -3.38 -32.6 0 -0.93 -11.85 9.31 -1.69 8.38 -0.85 17.7 0 17.7 2.54 13.03 4.23 9.32 7.62 4.65 8.46 0.94 2.54 0.93 11.01 0.94 30.46 1.86 0.85 7.45 -5.07 14.91 -11.01 9.31 -6.77 12.11 -10.16 9.31 -7.62 7.45 -5.92 7.46 -6.78 7.45 -5.92 20.49 -18.62 6.51 -6.77 10.25 -10.16 10.25 -11.84 13.03 -15.23 12.11 -15.24 11.18 -15.23 11.17 -16.93 11.18 -19.47 10.24 -22 8.38 -20.31 6.52 -19.47 5.59 -24.54 2.8 -22.01 0.93 -13.54 0 -36.39 -1.86 -27.07 -3.72 -22.01 -5.59 -22.85 -7.46 -22.85 -11.17 -27.08 -12.11 -25.39 -6.52 -12.7 -9.31 0.85 -31.67 10.16 -33.53 11.01 -13.97 4.23 -4.66 0.01 -6.51 -10.16 -4.66 -10.16 0 -4.24 110.83 -36.39 7.45 -1.69zm-728.31 482.4l-2.8 2.54 -17.7 27.08 -4.65 6.77 0.93 3.39 48.43 0 0.93 -4.24 -13.03 -21.15 -9.31 -13.54 -2.8 -0.86zm487.1 37.24l-9.31 3.39 -6.52 6.77 -0.93 4.23 2.79 5.93 6.52 5.07 12.11 3.39 9.31 0 11.18 -3.39 7.45 -4.23 2.79 -3.39 0.94 -4.23 -3.72 -6.78 -6.52 -4.23 -9.31 -2.54 -16.77 0z"/>
     <path class="fil2" d="M1014.53 527.71l7.46 1.69 2.79 1.69 -0.93 5.07 -11.18 25.39 -8.37 18.62 -10.25 21.15 -17.7 33.01 -11.18 16.08 -8.38 11.85 -7.45 10.16 -7.45 9.31 -7.45 8.46 -11.18 13.54 -6.52 7.62 -5.59 7.62 -5.59 5.93 -7.45 5.92 -18.63 16.93 -1.86 0 0 1.69 -7.45 5.92 -9.31 8.46 -7.46 5.92 -9.31 7.62 -10.25 7.62 -11.17 9.31 -7.45 6.77 -0.94 2.54 -4.66 0.85 -18.62 11.01 -16.77 11 -12.11 8.46 -12.1 7.62 -24.22 9.31 -9.32 5.08 -11.17 5.92 -10.25 3.39 -6.51 4.23 -1.87 4.24 0 2.53 15.83 -8.46 14.91 -6.77 10.25 -4.24 9.31 -5.07 8.38 -5.92 4.65 -3.39 13.97 -7.62 14.91 -5.07 13.03 -6.78 7.46 -5.07 4.65 -4.23 13.03 -11.01 20.49 -12.7 9.31 -6.77 10.25 -7.62 11.18 -9.31 14.9 -13.54 8.38 -9.31 8.38 -6.77 6.51 -11.01 6.52 -7.62 3.72 -4.24 6.52 -5.07 6.52 -6.77 8.37 -9.31 5.6 -5.92 5.59 -9.31 8.37 -10.16 9.32 -11.85 9.31 -14.38 9.32 -12.69 7.45 -11.01 17.7 -33.01 11.17 -24.54 4.66 -11.85 3.72 -12.69 2.8 -2.54 4.65 -0.85 6.52 1.69 0 6.77 -3.72 15.23 -10.25 23.7 -13.03 27.07 -11.18 18.62 -9.31 15.23 -16.77 25.39 -13.97 18.62 -11.17 15.23 -11.17 11.85 -9.32 11 -12.11 11.85 -8.37 9.31 -9.32 8.46 -0.93 1.69 -1.86 0 -1.86 3.39 -24.22 22 -7.45 5.92 -13.97 11.85 -13.03 10.16 -12.11 8.46 -19.56 13.54 -11.18 6.77 -12.11 7.62 -11.17 6.78 -29.8 16.93 -23.28 11.84 -18.63 8.46 -7.45 5.08 -3.72 4.23 -10.25 14.38 -6.52 9.31 -9.31 11.85 -10.25 11.84 -11.17 14.39 -9.32 11.84 -7.45 5.92 -9.31 0 -11.17 -4.23 -20.49 -9.31 -17.7 -10.16 -13.03 -6.77 -21.43 -10.16 -12.11 -5.07 -3.72 -0.85 -61.47 0 -45.64 -3.39 -53.09 -5.92 -17.7 -4.23 -40.98 -10.16 -14.91 -5.08 -29.8 -11 -23.28 -8.46 -24.22 -11.01 -17.7 -8.46 -17.7 -7.62 -21.42 -11.01 -25.14 -11.84 -13.04 -6.78 -6.51 -5.92 0.93 -5.07 1.86 -0.85 11.18 4.23 20.48 10.16 17.7 7.62 11.18 5.08 8.37 3.38 14.91 6.77 0.93 2.54 10.25 0.85 -3.72 -3.39 -9.31 -3.38 -16.77 -8.46 -7.45 -4.24 -17.7 -8.46 -9.32 -5.07 -20.48 -10.16 -6.52 -4.24 0.94 -3.38 1.86 -4.24 5.59 0.85 20.48 10.16 19.57 10.16 25.14 12.69 32.59 15.24 28.88 11.84 25.14 10.16 0 1.69 8.38 1.69 37.25 10.15 24.22 5.08 41.91 6.77 29.8 3.39 29.8 1.69 32.59 0 21.43 -0.85 18.62 0 10.25 3.38 22.36 11.85 21.42 10.16 21.42 11 22.36 9.31 1.86 0 14.9 -20.31 12.11 -15.24 13.04 -16.08 9.31 -12.69 11.17 -17.77 4.66 -3.39 26.08 -11.84 17.7 -7.62 21.42 -11.01 13.97 -7.62 11.18 -6.77 15.83 -10.16 16.76 -11.01 17.7 -11.84 12.11 -9.31 13.04 -10.16 35.39 -32.16 6.51 -6.78 7.46 -7.62 8.37 -9.31 9.32 -10.15 13.97 -16.93 11.17 -14.39 13.04 -17.77 12.1 -18.61 12.11 -20.32 12.11 -22 11.18 -24.54 13.03 -33.85 0.93 -0.85zm-807.48 327.53m0.93 0.85l3.72 3.39 5.6 0.84 -2.8 -2.53 -3.72 -1.69 -2.8 0zm9.32 4.23m6.51 2.54m0.94 0.85l3.72 2.54 5.59 1.68 0 -1.68 -6.51 -2.54 -2.8 0zm17.7 7.62l3.72 3.39 12.11 6.77 38.19 11.84 13.03 4.24 7.45 0.85 2.8 0 7.45 3.38 27.02 8.46 14.9 1.69 28.87 -0.85 24.22 0 0 -0.85 -42.84 -7.62 -36.33 -5.07 -15.83 -1.69 -5.59 -0.85 -0.94 -2.53 -19.56 -5.08 -20.48 -5.07 -13.97 -5.08 -21.43 -5.92 -2.79 0zm434.01 17.77l-11.18 11.01 -10.24 11 -13.04 16.08 -8.37 13.55 -10.25 15.23 -0.94 0.85 -7.45 -0.85 -18.63 -6.77 -9.31 -5.08 -22.36 -11 -11.17 -5.93 -15.83 -6.77 -7.45 -3.39 -6.52 -1.68 -3.72 0.84 9.31 3.39 13.03 6.77 6.52 5.08 14.91 7.62 17.7 8.46 20.48 10.16 13.97 6.77 6.52 0.85 2.79 -1.69 0 -1.69 1.87 0 13.97 -20.31 6.51 -8.46 20.49 -27.08 7.45 -12.7 1.86 -4.23 -0.93 0zm-221.66 21.15l0 1.69 -21.43 0 0 0.85 30.74 2.54 23.28 0 4.66 -0.85 0 -1.69 -13.03 -2.53 -24.22 -0.01zm-30.74 0.85l0 0.85 8.38 0 0 -0.85 -8.38 0z"/>
     <polygon class="fil3" points="519.98,65.62 591.7,65.62 623.36,67.31 675.51,71.54 727.67,77.47 778.9,85.09 822.67,92.7 883.21,103.7 900.91,107.93 902.77,111.31 896.25,133.32 894.39,135.86 886,135.02 842.23,125.71 779.83,113.85 721.15,105.39 684.83,101.16 655.96,98.62 629.89,96.93 577.73,95.23 528.37,95.23 484.59,96.93 448.27,99.47 413.8,104.54 379.35,111.32 365.38,114.7 322.53,127.4 295.52,137.56 270.38,148.56 249.89,158.71 224.74,173.95 207.05,185.8 194,195.11 180.97,205.27 174.45,211.19 167,217.11 148.37,234.04 147.44,235.73 145.58,235.73 143.72,239.11 135.33,247.58 126.02,258.58 115.78,270.43 103.67,285.66 99.01,292.43 94.36,290.74 83.17,286.51 71.07,278.89 70.14,276.35 77.59,264.51 87.83,251.81 99.94,237.42 111.12,225.57 121.36,215.41 122.3,213.73 124.16,213.72 126.02,210.34 147.44,190.87 154.89,184.95 167.94,174.79 183.77,162.94 200.53,151.94 218.22,141.79 240.58,129.93 262.93,118.94 290.87,107.93 317.88,98.62 350.47,89.31 376.55,83.39 411.01,76.62 446.4,71.54 480.87,68.16 502.29,66.46 "/>
     <polygon class="fil4" points="886.94,145.18 892.52,146.01 916.74,154.48 918.6,155.32 917.67,159.56 908.36,170.56 900.91,178.17 885.08,189.18 859.92,201.03 828.26,211.19 800.31,217.96 769.58,223.88 721.15,230.65 655.03,237.42 580.52,244.19 518.12,249.27 454.79,255.19 387.72,262.81 336.5,269.58 291.8,276.35 254.55,283.12 221.95,289.89 195.87,295.82 159.55,305.98 146.51,308.51 141.86,301.74 136.26,288.2 135.33,283.97 166.06,274.66 199.6,266.19 249.89,256.04 287.14,249.27 351.41,239.11 424.05,230.65 482.73,224.72 634.54,211.19 684.83,206.95 726.75,201.88 751.89,198.49 787.28,192.57 812.42,186.64 839.44,178.18 857.13,170.57 868.31,163.79 877.63,156.17 885.08,148.56 "/>
     <path class="fil1" d="M542.34 378.76l24.21 0 12.11 2.53 9.32 4.24 11.17 7.62 2.8 -13.54 29.79 0 0.94 0.84 0 64.33 -0.94 59.24 -4.65 11.84 -5.59 7.62 -6.52 5.93 -10.25 5.92 -14.9 5.07 -18.63 3.39 -6.52 0.85 -24.22 0 -9.31 -1.69 -2.79 -4.23 0 -16.08 28.87 0 13.03 -1.69 11.18 -3.39 7.45 -4.23 6.52 -6.78 3.72 -10.15 0.93 -6.78 -0.93 -8.46 -6.52 3.39 -8.38 5.07 -12.1 4.24 -11.18 1.69 -17.7 0 -14.9 -2.54 -14.91 -5.92 -10.25 -5.92 -4.65 -3.39 -7.45 -9.31 -7.46 -13.54 -1.86 -9.31 0 -16.08 2.8 -10.16 4.65 -10.16 7.46 -9.31 9.31 -7.62 10.25 -5.92 10.25 -4.24 9.31 -2.53 6.52 -0.85zm14.9 18.62l-14.9 1.68 -8.38 3.39 -7.45 5.07 -6.52 7.62 -3.72 7.63 -1.86 8.46 0 11 2.79 10.16 4.66 7.62 7.45 6.77 9.31 5.08 8.38 2.53 4.66 0.85 13.03 0 12.11 -3.38 9.32 -5.08 5.59 -4.23 6.51 -9.31 3.73 -12.7 0 -7.62 -3.73 -13.54 -6.51 -9.31 -8.38 -6.77 -11.17 -4.24 -14.91 -1.68z"/>
     <polygon class="fil5" points="224.74,330.52 242.44,330.52 272.24,332.2 284.35,333.9 285.28,334.75 285.28,352.52 283.42,356.75 282.49,357.59 269.44,357.59 252.69,356.75 220.08,356.75 207.05,358.44 194.94,361.83 188.42,366.06 185.63,371.14 185.63,377.91 190.28,384.68 203.33,391.45 221.95,398.23 248.03,406.69 271.31,416.85 279.69,422.77 284.35,427 289.94,433.76 293.66,442.24 293.66,458.32 289,469.31 283.42,476.09 275.97,482.01 264.79,487.09 245.23,492.17 231.26,494.7 221.95,495.55 169.8,495.55 148.37,493.85 141.86,491.31 140.92,482 140.92,470.16 141.86,468.46 195.87,471.01 211.7,471.01 234.05,467.62 242.44,464.24 248.03,460.85 251.75,454.08 251.75,447.3 248.03,442.23 239.64,436.31 220.08,429.53 189.35,419.38 166.06,409.22 154.89,401.61 148.37,393.99 144.64,386.37 143.72,382.98 143.72,369.45 147.44,358.44 151.17,352.52 158.61,345.74 169.8,339.82 184.69,335.59 206.11,332.2 "/>
     <polygon class="fil6" points="1014.53,527.71 1021.98,529.4 1024.77,531.1 1023.85,536.17 1012.66,561.56 1004.29,580.18 994.04,601.33 976.35,634.34 965.17,650.42 956.78,662.27 949.33,672.43 941.88,681.74 934.44,690.2 923.25,703.74 916.73,711.36 911.14,718.97 905.56,724.9 898.11,730.83 879.48,747.75 877.62,747.75 877.62,749.45 870.17,755.37 860.86,763.83 853.4,769.75 844.09,777.37 833.84,784.98 822.67,794.29 815.22,801.06 814.29,803.61 809.63,804.45 791,815.46 774.24,826.45 762.13,834.92 750.03,842.53 725.81,851.84 716.49,856.93 705.32,862.85 695.07,866.24 688.56,870.46 683.9,879.77 677.38,887.39 673.65,893.31 664.34,901.78 654.09,913.63 641.06,929.71 631.74,944.94 623.35,956.79 622.43,957.64 614.98,956.79 596.35,950.01 587.04,944.94 564.68,933.93 553.51,928.01 537.68,921.24 522.77,914.48 514.39,909.39 503.21,909.39 488.32,911.09 448.27,911.09 438.02,910.24 411.94,909.4 374.69,902.62 343.02,898.4 327.19,896.7 321.6,895.01 320.67,893.31 301.11,888.24 280.63,883.16 266.66,878.08 252.69,873.85 241.5,868.77 227.53,864.54 227.53,862.85 217.29,860.31 205.19,854.38 200.53,851 191.22,847.62 174.45,839.15 167,834.92 149.3,826.45 139.98,821.38 119.5,811.22 112.98,806.99 113.9,803.61 115.77,799.37 121.36,800.22 141.85,810.37 161.41,820.53 186.56,833.23 219.15,848.46 248.03,860.31 273.17,870.46 273.17,872.16 281.55,873.85 318.81,884.01 343.02,889.09 384.94,895.85 414.74,899.24 444.54,900.94 477.13,900.94 498.56,900.09 517.18,900.09 527.43,903.47 549.79,915.32 571.21,925.48 592.62,936.48 614.98,945.79 616.84,945.79 631.74,925.48 643.85,910.24 656.89,894.16 666.2,881.47 677.38,863.7 682.04,860.31 708.12,848.46 725.81,840.85 747.23,829.84 761.2,822.23 772.38,815.46 788.22,805.3 804.97,794.29 822.67,782.45 834.78,773.14 847.82,762.98 883.21,730.83 889.73,724.05 897.18,716.43 905.56,707.12 914.88,696.97 928.85,680.05 940.02,665.65 953.07,647.88 965.17,629.27 977.27,608.95 989.38,586.95 1000.57,562.41 1013.6,528.55 "/>
     <polygon class="fil7" points="194,511.63 198.66,512.48 207.05,517.55 213.56,523.47 214.5,526.01 212.64,528.55 210.77,528.55 208.91,531.93 196.8,540.41 186.56,548.87 176.31,556.49 156.75,571.72 155.83,573.41 157.69,573.4 157.69,575.1 161.41,576.79 171.66,585.26 179.11,591.18 192.14,601.33 207.05,612.34 216.36,619.96 225.67,628.42 225.67,630.11 221.02,634.34 212.64,640.27 206.11,643.65 200.53,643.65 188.42,635.19 176.31,625.03 166.06,617.41 153.96,608.1 143.72,599.64 130.67,590.33 121.36,583.56 117.64,581.87 117.64,641.96 116.7,642.8 110.19,643.65 88.76,643.65 85.97,642.8 85.04,637.73 85.04,515.02 85.97,513.32 116.7,513.32 117.64,514.17 117.64,568.33 126.02,563.25 136.26,555.64 149.3,545.48 159.55,537.87 172.59,527.71 182.83,520.09 "/>
     <path class="fil1" d="M388.66 376.22l14.9 0.85 14.91 3.39 14.9 6.77 10.25 7.62 6.52 6.77 7.45 11.85 3.72 11 -4.65 2.54 -46.57 11.01 -54.95 12.69 -1.86 0.85 0.93 5.07 6.52 7.63 7.45 5.07 8.38 3.39 7.45 1.68 13.04 0 11.17 -2.53 13.04 -5.93 10.25 -9.3 2.79 -3.39 7.45 0.85 18.63 5.07 -0.94 5.08 -7.45 8.46 -7.45 6.77 -9.31 5.92 -13.97 5.92 -13.04 3.39 -6.51 0.85 -21.43 0 -14.9 -2.54 -12.11 -4.23 -13.03 -6.78 -10.25 -7.62 -7.46 -9.31 -4.65 -10.15 -2.8 -13.55 0 -11 2.8 -12.7 4.65 -10.16 6.52 -7.62 8.38 -7.62 13.03 -7.62 10.25 -4.23 10.25 -2.54 17.7 -1.69zm-3.72 17.77l-12.11 2.54 -9.31 4.23 -9.32 7.62 -5.59 10.16 -1.86 7.62 0 5.92 1.86 2.54 7.45 -0.85 29.81 -5.92 21.42 -5.08 18.62 -4.23 1.86 -0.85 -0.93 -5.92 -5.59 -6.77 -7.46 -5.93 -9.31 -3.38 -9.31 -1.69 -10.25 0z"/>
     <polygon class="fil5" points="815.22,377.06 851.55,377.06 860.86,377.91 861.78,378.76 861.78,396.53 860.86,397.37 825.47,397.38 810.56,399.06 802.18,401.61 798.45,404.99 797.53,412.61 801.25,416.84 814.29,421.92 845.95,432.07 859,438.85 865.51,444.77 870.17,453.23 871.1,457.46 871.1,465.92 868.31,474.39 862.72,481.16 857.13,485.39 847.81,489.63 831.98,493.85 814.29,495.55 791,495.55 770.52,494.7 764,493.01 763.06,492.16 763.06,475.23 764,473.55 775.17,473.54 789.14,474.39 805.91,474.39 823.61,471.85 832.92,467.62 835.71,463.39 834.78,457.47 830.13,453.23 818.95,449.01 789.14,439.7 774.25,432.92 767.72,427 763.06,418.53 761.2,408.37 764,398.22 770.52,389.75 780.76,383.83 790.08,380.45 804.05,377.91 "/>
     <polygon class="fil8" points="505.08,510.78 514.4,510.78 516.26,516.7 517.18,558.17 534.88,550.56 542.34,548.86 557.23,548.02 572.13,550.56 581.45,554.79 588.9,560.71 595.42,570.02 597.29,575.94 598.21,583.56 598.21,635.19 597.29,641.96 590.76,643.65 576.79,643.65 573.07,641.96 571.21,636.03 571.21,596.26 570.27,584.41 566.55,575.1 560.96,569.18 553.51,566.63 549.79,565.8 534.88,565.79 526.51,568.33 520.91,572.57 517.18,580.18 516.26,633.49 514.4,641.96 512.53,642.8 492.98,642.8 489.24,639.42 488.32,636.03 488.32,515.01 492.04,512.48 "/>
     <path class="fil4" d="M227.53 649.57l2.8 0.85 12.11 16.08 16.76 22.86 17.7 24.54 13.04 18.61 14.9 20.32 5.59 9.31 -0.93 2.54 -25.14 0 -8.38 -8.46 -11.17 -15.23 -4.66 -5.08 -4.66 0 -12.11 7.62 -13.03 6.77 -4.66 -0.84 -13.97 -7.62 -12.1 -6.78 -4.66 4.24 -6.52 10.16 -9.31 12.69 -2.8 3.39 -14.9 0.85 -16.77 -0.85 1.87 -3.39 26.07 -35.55 21.43 -29.62 9.31 -12.7 15.83 -22 8.37 -12.7zm0.94 41.47l-2.8 2.54 -17.7 27.08 -4.65 6.77 0.93 3.39 48.43 0 0.93 -4.24 -13.03 -21.15 -9.31 -13.54 -2.8 -0.86z"/>
     <polygon class="fil9" points="615.91,682.59 630.81,684.27 641.99,688.51 650.37,695.28 655.96,705.44 656.89,708.82 656.89,758.76 655.03,763.83 653.17,764.68 635.47,764.68 634.54,760.44 633.61,713.9 629.89,705.44 624.29,701.2 616.84,698.67 607.53,698.67 600.07,701.2 595.42,704.59 593.56,708.81 592.62,721.51 592.62,736.75 591.7,763.83 590.76,764.68 570.27,764.68 569.34,761.29 568.42,712.2 564.68,704.59 559.1,700.35 556.31,699.51 541.4,699.51 533.95,702.05 529.29,707.13 528.37,709.66 527.43,720.67 526.51,763.83 524.64,764.68 506.01,764.68 505.08,761.29 504.15,750.28 504.15,685.97 525.57,685.97 528.37,691.89 543.26,685.12 548.85,683.43 563.76,683.43 576.79,687.66 582.38,691.04 585.18,693.58 588.9,692.74 597.29,687.66 608.46,683.43 "/>
     <path class="fil8" d="M675.51 547.18l13.04 0 14.9 2.53 13.04 5.93 11.17 7.62 5.59 6.77 6.52 12.69 0.93 4.24 -8.37 3.38 -13.04 3.39 -39.11 8.46 -24.22 5.92 -2.79 1.69 1.86 4.24 5.59 5.92 11.17 5.07 3.73 0.85 15.82 0 9.32 -2.53 8.37 -5.08 6.52 -5.92 1.86 -2.54 9.32 0.85 10.24 3.39 1.86 1.69 -0.93 4.23 -7.45 8.46 -11.18 7.62 -11.17 5.08 -9.32 2.53 -7.45 0.85 -19.56 0 -13.03 -2.54 -11.18 -4.23 -10.24 -6.77 -8.38 -7.62 -5.59 -10.16 -2.8 -8.46 0 -16.08 3.72 -11.01 4.66 -7.62 7.45 -7.62 11.18 -7.62 10.24 -4.24 10.25 -2.53 7.45 -0.85zm2.8 15.23l-11.17 2.53 -8.38 4.24 -6.52 6.77 -3.72 8.46 0 8.46 0.93 0.85 9.32 -0.85 39.11 -8.46 12.11 -3.38 1.86 -0.85 -0.93 -4.24 -5.6 -6.77 -13.03 -5.92 -5.59 -0.85 -8.38 0z"/>
     <polygon class="fil8" points="815.22,548.02 835.71,548.02 847.82,551.4 856.2,555.64 861.78,559.87 867.38,567.48 871.1,576.79 872.03,581.03 872.97,594.57 872.97,628.42 872.03,641.96 865.52,643.65 847.81,643.65 845.95,642.8 845.03,639.42 844.09,627.57 843.16,582.71 839.44,575.1 835.71,570.87 828.26,567.48 819.88,565.8 810.56,565.79 800.31,568.33 795.66,571.72 791.94,577.64 790.08,585.26 789.14,641.96 780.76,643.65 764.92,643.65 762.14,641.11 761.2,636.03 761.2,551.4 762.14,549.71 787.28,549.71 789.14,553.1 789.14,556.49 797.53,553.94 810.56,548.87 "/>
     <polygon class="fil8" points="402.63,548.02 428.71,548.02 439.88,550.56 451.06,555.64 460.38,563.25 465.04,568.33 464.1,572.57 449.2,579.33 445.48,577.64 438.96,571.72 431.51,568.33 424.99,566.63 406.35,566.63 397.04,569.18 389.6,574.25 384,581.88 381.21,588.64 380.28,598.8 383.07,608.95 388.66,616.58 397.04,622.5 406.35,625.03 424.05,625.03 433.37,622.5 445.48,614.88 449.2,610.65 455.72,611.49 463.17,614.88 467.82,619.11 465.04,624.18 458.51,630.96 446.4,637.73 435.23,641.96 427.77,643.65 417.54,644.5 404.49,644.5 394.25,642.8 379.35,637.73 370.03,631.81 362.58,625.88 356.99,618.26 353.27,608.95 351.41,596.26 353.27,582.71 359.78,570.87 367.24,563.25 379.35,555.64 391.46,550.56 "/>
     <path class="fil4" d="M421.26 682.59l17.7 0 13.03 2.53 13.03 5.92 9.32 7.63 3.72 4.23 4.66 8.46 2.79 10.16 0 7.62 -3.72 11.01 -5.59 8.46 -8.38 7.62 -11.17 5.92 -11.18 3.39 -5.59 0.85 -23.28 0 -11.17 -2.54 -11.18 -5.08 -11.17 -9.3 -4.66 -6.78 -3.72 -10.16 0 -15.23 3.72 -10.16 5.59 -8.46 7.46 -5.92 14.9 -6.77 8.38 -2.54 6.52 -0.84zm0.93 15.23l-9.31 2.53 -7.45 4.24 -5.6 7.62 -2.79 6.77 0 11.85 3.72 8.46 6.52 6.77 7.45 4.23 9.31 2.54 10.25 0 11.18 -2.53 8.37 -5.08 5.59 -6.77 1.87 -4.24 0.93 -11.84 -1.86 -8.46 -5.59 -7.62 -5.59 -4.24 -9.32 -3.38 -4.65 -0.85 -13.04 0z"/>
     <path class="fil10" d="M708.12 684.27l17.7 0 17.7 2.54 13.03 4.23 9.32 7.62 4.65 8.46 0.94 2.54 0.93 11.01 0.94 34.7 -0.94 9.31 -13.97 1.68 -6.51 0.01 -2.8 -5.08 0 -1.69 -9.31 3.39 -14.91 3.39 -14.9 0 -13.03 -2.54 -9.32 -4.24 -4.65 -3.38 -4.66 -6.77 -0.93 -2.54 0 -9.31 4.65 -8.46 7.46 -5.92 10.24 -4.24 7.46 -1.69 8.37 -0.84 11.18 0 12.1 1.68 10.25 3.39 0 -9.31 -3.72 -6.77 -5.59 -3.39 -15.83 -3.38 -32.6 0 -0.93 -11.85 9.31 -1.69 8.38 -0.85zm7.45 44.01l-9.31 3.39 -6.52 6.77 -0.93 4.23 2.79 5.93 6.52 5.07 12.11 3.39 9.31 0 11.18 -3.39 7.45 -4.23 2.79 -3.39 0.94 -4.23 -3.72 -6.78 -6.52 -4.23 -9.31 -2.54 -16.77 0z"/>
     <polygon class="fil8" points="313.22,520.09 317.88,520.09 318.81,532.78 318.81,548.87 342.1,550.56 343.02,553.1 340.22,561.56 339.3,563.25 336.5,564.1 318.81,564.1 318.81,598.79 319.74,617.41 322.53,623.34 330.91,626.72 341.16,629.27 343.02,632.65 343.02,638.58 341.16,642.8 339.3,643.65 320.67,643.65 308.57,640.26 300.18,636.03 294.6,630.11 291.8,621.65 290.87,570.02 289,564.94 278.77,562.41 277.83,559.02 279.69,551.4 282.49,549.71 289.94,548.86 291.8,527.71 295.52,525.17 "/>
     <polygon class="fil11" points="1014.53,527.71 1021.98,529.4 1020.12,532.78 1017.32,534.48 1016.4,538.71 1011.74,553.94 1003.35,575.1 996.84,587.8 988.46,605.57 986.59,605.57 983.8,613.19 980.07,619.11 973.55,630.11 971.69,632.65 969.83,632.66 967.96,637.73 965.17,642.8 959.58,650.42 953.99,659.73 946.54,669.04 939.09,679.2 933.5,685.12 930.71,689.36 921.39,700.36 913.01,709.66 901.83,721.51 898.11,725.74 896.25,725.74 894.39,729.13 883.2,740.14 882.28,741.83 880.42,741.83 880.42,743.52 876.69,746.06 874.83,746.06 874.83,747.75 869.24,751.98 865.51,756.22 863.65,756.22 863.65,757.91 861.78,757.91 860.86,760.44 854.34,764.68 851.55,767.21 849.68,767.21 848.75,770.6 845.95,770.6 845.03,773.99 837.58,779.91 833.85,782.45 831.05,782.45 830.12,785.83 823.61,789.22 811.5,798.53 795.66,808.69 790.08,812.07 779.83,818.84 766.79,826.46 756.55,832.38 746.3,837.46 740.72,840.85 730.47,845.92 707.19,856.93 692.28,863.7 684.83,867.93 683.9,869.63 682.04,869.62 682.04,871.31 678.31,872.16 678.31,877.23 676.45,877.23 674.59,881.47 671.79,885.7 669.93,885.7 669,891.63 666.2,894.16 663.41,899.24 661.55,900.09 658.75,905.16 655.97,906.86 655.97,909.39 654.09,909.39 652.23,912.78 648.51,916.17 648.51,917.85 646.65,917.85 646.65,919.55 644.78,920.4 641.99,925.48 638.26,929.71 634.54,935.63 630.81,939.02 627.09,945.79 624.29,947.48 625.23,950.87 622.43,955.1 618.7,955.94 615.91,955.1 614.04,950.87 615.91,950.87 615.91,946.63 622.43,938.17 631.74,925.48 643.85,910.24 656.89,894.16 666.2,881.47 677.38,863.7 682.04,860.31 708.12,848.46 725.81,840.85 747.23,829.84 761.2,822.23 772.38,815.46 788.22,805.3 804.97,794.29 822.67,782.45 834.78,773.14 847.82,762.98 883.21,730.83 889.73,724.05 897.18,716.43 905.56,707.12 914.88,696.97 928.85,680.05 940.02,665.65 953.07,647.88 965.17,629.27 977.27,608.95 989.38,586.95 1000.57,562.41 1013.6,528.55 "/>
     <polygon class="fil1" points="671.79,379.61 697.87,379.61 698.8,380.44 698.8,491.31 696.94,493.01 669,493.01 667.14,487.93 667.14,391.45 668.07,380.45 "/>
     <polygon class="fil12" points="1021.98,530.25 1024.77,531.1 1023.85,536.17 1012.66,561.56 1004.28,580.18 994.04,601.33 976.34,634.34 965.17,650.42 956.78,662.27 949.33,672.43 941.88,681.74 934.43,690.2 923.25,703.74 916.73,711.36 911.14,718.97 905.56,724.89 898.11,730.83 879.48,747.75 877.62,747.75 877.62,749.45 870.17,755.37 860.86,763.83 853.4,769.75 844.09,777.37 833.84,784.98 822.67,794.29 815.22,801.06 814.29,803.61 809.63,804.45 791,815.46 774.24,826.45 762.13,834.92 750.03,842.53 725.81,851.84 716.49,856.93 705.32,862.85 695.07,866.24 688.56,870.46 683.9,879.77 677.38,887.39 673.65,893.31 664.34,901.78 654.09,913.63 641.06,929.71 631.74,944.94 623.35,956.79 622.43,957.64 614.98,956.79 596.35,950.01 587.04,944.94 564.68,933.93 553.51,928.01 537.68,921.24 522.77,914.48 514.39,909.39 503.21,909.39 488.32,911.09 448.27,911.09 438.02,910.24 411.94,909.4 384,904.32 385.87,902.62 393.32,903.47 415.67,904.32 440.82,906.01 490.18,906.01 501.35,905.16 512.53,905.16 519.98,906.86 527.43,910.24 540.47,917.85 560.96,928.01 570.27,932.25 574.93,933.94 577.73,936.48 586.1,939.86 599.15,946.63 602.87,947.48 608.46,944.94 610.32,947.48 612.18,947.48 613.12,944.94 615.91,946.63 615.91,950.87 615.91,953.4 615.91,955.1 622.43,954.25 624.29,950.02 623.36,946.63 627.09,944.94 631.74,936.48 636.4,932.25 640.12,926.33 642.92,922.94 644.78,919.55 646.65,919.55 648.51,915.32 655.03,908.55 656.89,905.16 658.75,905.16 660.62,900.09 664.34,896.7 667.14,891.63 669,891.63 669.93,885.7 672.73,883.16 674.59,878.93 676.45,878.93 676.45,877.23 678.31,877.23 678.31,872.16 682.04,871.31 682.04,869.62 683.9,869.62 684.83,867.08 692.28,862.85 707.18,856.08 734.19,843.38 740.71,840 753.75,832.38 764,827.3 777.03,819.68 790.07,811.22 800.31,804.45 813.35,795.99 827.32,785.83 830.12,784.98 831.04,782.45 837.57,779.06 842.23,774.83 845.02,773.99 845.95,770.6 848.75,770.6 849.68,767.21 853.41,766.37 854.34,763.83 860.86,759.59 861.78,757.91 863.65,757.91 863.65,756.22 865.51,756.22 866.44,753.67 868.31,753.67 870.17,750.28 872.97,747.75 874.83,747.75 874.83,746.06 878.55,743.52 880.42,743.52 880.42,741.83 882.28,741.83 884.14,738.44 895.31,727.44 901.83,720.67 910.22,712.2 919.53,701.2 927.91,691.89 931.64,687.66 934.44,683.43 940.02,676.66 953.06,659.73 961.44,646.19 965.17,641.96 969.83,632.66 971.69,632.66 979.14,619.11 982.86,613.19 986.59,605.57 988.46,605.57 989.38,600.49 994.97,590.33 998.69,581.87 1004.29,570.87 1010.8,553.94 1015.46,538.71 1017.32,533.63 "/>
     <polygon class="fil7" points="247.1,549.71 256.41,549.71 262,550.56 262.92,555.64 262.92,636.03 261.06,641.96 260.13,642.8 239.64,642.8 236.85,638.58 235.92,636.03 235.92,570.02 236.85,552.25 237.78,550.56 "/>
     <polygon class="fil13" points="367.24,682.59 370.96,683.43 370.96,698.67 357.93,699.5 348.61,702.89 343.96,707.97 342.1,712.2 341.16,751.13 340.23,762.98 336.51,764.68 320.67,764.68 318.81,760.44 318.81,685.97 340.23,685.97 342.1,691.04 346.75,690.2 355.13,685.12 360.72,683.43 "/>
     <polygon class="fil5" points="722.09,333.9 750.03,333.9 759.34,334.75 760.27,335.59 760.27,357.59 759.34,365.21 738.85,383.83 731.4,389.75 725.81,393.99 721.15,393.14 719.29,388.06 723.01,381.29 730.47,370.29 731.4,366.06 722.09,363.52 721.15,360.98 720.22,349.13 720.22,334.75 "/>
     <path class="fil14" d="M503.21 908.55l11.18 0 11.17 6.77 -3.72 0.85 8.38 3.38 1.86 1.69 -5.59 -0.85 -18.63 -0.85 -23.28 0.85 -27.02 0 -41.91 -2.54 -36.32 -4.23 -3.72 -1.69 0 -0.85 22.35 -0.84 19.57 -0.01 0 -0.84 20.48 -0.01 16.77 0.85 0 1.69 -12.11 0.85 21.42 1.69 27.94 0 0 -1.69 -6.52 -0.85 2.8 -1.69 14.9 -1.68zm-79.16 2.53l0 0.85 8.38 0 0 -0.85 -8.38 0z"/>
     <polygon class="fil15" points="114.84,801.06 115.78,801.06 115.78,806.15 120.43,806.99 125.09,809.53 135.33,814.61 145.58,820.53 160.48,827.3 170.72,833.23 188.42,840.85 198.66,845.92 207.98,850.16 219.16,854.38 225.67,857.77 234.05,861.15 241.5,864.54 253.61,868.77 262.93,872.16 270.38,875.55 289,881.47 305.77,886.54 319.74,889.93 331.85,892.46 345.82,895.85 349.55,895.85 349.55,897.55 355.13,898.4 355.13,899.24 343.02,898.4 327.19,896.7 321.6,895.01 320.67,893.31 301.11,888.24 280.63,883.15 266.66,878.08 252.69,873.85 241.5,868.77 227.53,864.54 227.53,862.85 217.29,860.31 205.19,854.38 200.53,851 191.22,847.62 174.45,839.15 167,834.92 149.3,826.45 139.98,821.38 119.5,811.22 112.98,806.98 113.9,803.61 "/>
     <polygon class="fil16" points="660.62,333.9 706.25,333.9 708.12,335.59 699.73,344.9 686.7,360.14 682.97,361.83 674.59,353.37 664.34,341.52 659.69,336.44 "/>
     <polygon class="fil17" points="528.37,522.63 557.23,523.47 556.31,527.71 557.23,530.25 560.96,531.93 560.96,533.63 562.82,533.63 562.82,535.32 564.68,535.32 564.68,537.87 566.55,537.87 567.48,541.24 572.13,542.09 571.21,543.79 564.68,544.63 540.47,544.63 531.16,542.94 528.37,538.71 "/>
     <polygon class="fil14" points="787.28,826.45 789.14,826.45 787.28,829.84 782.62,833.23 767.72,841.69 753.75,850.16 741.64,856.93 723.02,866.24 712.78,870.46 704.39,873.01 696.94,875.55 686.7,881.47 682.97,885.7 677.38,892.46 676.45,889.09 678.31,885.7 683.9,878.93 685.76,876.39 688.56,876.39 700.67,869.62 714.64,862.85 726.75,858.62 736.98,852.69 745.37,846.77 750.03,843.38 764,835.76 778.9,830.69 "/>
     <polygon class="fil18" points="1006.15,532.78 1008.01,533.63 997.77,557.32 981.93,586.95 973.55,601.33 961.44,619.11 950.27,634.34 940.95,646.19 931.64,657.19 923.25,666.5 914.87,674.96 912.08,676.66 913.01,673.28 916.73,669.89 924.19,660.58 926.05,658.04 927.91,658.04 929.78,654.66 936.3,646.19 938.16,641.96 941.88,637.73 943.75,637.73 945.61,634.34 950.27,628.42 953.99,622.5 965.17,605.57 967.03,605.57 967.96,602.18 969.83,602.18 970.75,598.79 974.49,595.41 980.07,585.26 982.86,578.49 989.38,566.63 994.04,556.48 998.69,547.18 1004.28,534.48 "/>
     <polygon class="fil19" points="241.5,513.32 258.27,513.32 266.66,514.17 264.79,519.24 255.47,530.25 250.82,535.32 247.09,533.63 237.78,522.63 231.26,515.02 231.26,514.17 "/>
     <polygon class="fil20" points="737.92,369.45 741.64,371.98 740.72,376.22 744.44,377.06 742.58,380.44 728.61,392.3 725.81,393.99 721.15,393.14 719.29,388.06 723.02,381.29 729.53,371.98 "/>
     <polygon class="fil21" points="849.68,377.91 860.86,377.91 861.78,378.76 861.78,396.53 860.86,397.38 843.16,397.38 835.7,396.53 835.7,395.68 846.89,394.84 847.81,389.76 849.68,389.75 850.61,381.29 "/>
     <polygon class="fil22" points="425.91,885.7 441.74,885.7 451.06,886.54 454.79,886.54 454.79,888.24 468.76,889.09 494.84,889.09 509.74,890.78 509.74,891.63 477.13,891.63 441.74,889.93 418.46,887.39 418.46,886.54 "/>
     <polygon class="fil21" points="764,473.54 770.51,473.54 777.97,476.08 776.11,480.32 770.51,482 769.58,483.7 767.72,482.85 765.86,485.39 766.79,488.78 767.72,490.46 774.24,492.16 772.37,493.85 764.92,493.85 763.06,492.16 763.06,475.23 "/>
     <polygon class="fil21" points="783.56,746.06 785.42,746.9 777.03,753.67 775.17,762.14 773.31,766.37 759.34,769.75 748.17,773.99 743.51,776.52 741.64,775.67 750.95,768.91 751.89,766.37 767.72,764.68 772.37,764.68 772.37,751.13 775.17,751.98 782.62,746.9 "/>
     <polygon class="fil23" points="446.4,455.77 454.79,457.46 460.38,459.15 459.44,464.24 457.58,466.77 454.79,466.77 454.79,465.08 448.27,465.92 445.47,465.92 442.68,461.7 444.54,456.61 "/>
     <polygon class="fil12" points="308.57,888.24 319.74,889.93 331.85,892.46 345.82,895.85 349.55,895.85 349.55,897.55 355.13,898.4 355.13,899.24 343.02,898.4 327.19,896.7 321.6,895.01 320.67,893.31 308.57,889.93 "/>
     <polygon class="fil14" points="214.5,860.31 221.02,860.31 227.53,862.85 226.61,864.54 233.13,867.07 235.92,866.24 251.75,872.16 252.69,873.85 243.37,872.16 246.16,874.7 241.5,873.85 224.74,867.07 216.36,862 "/>
     <polygon class="fil24" points="1006.15,532.78 1008.01,533.63 997.77,557.32 989.38,573.4 986.59,574.25 987.52,570.02 994.04,556.49 998.69,547.18 1004.28,534.48 "/>
     <polygon class="fil25" points="408.22,899.24 444.54,900.94 451.06,901.78 451.06,902.62 459.44,903.47 460.38,905.16 451.99,905.16 424.05,902.62 424.05,900.94 411.94,900.94 "/>
     <polygon class="fil17" points="693.21,379.61 697.87,379.61 698.8,380.44 698.8,441.38 697.87,441.38 696.94,393.14 696.01,383.83 694.14,383.83 693.22,382.14 691.35,381.3 "/>
     <polygon class="fil14" points="929.78,702.89 929.78,705.44 925.13,711.36 923.25,711.36 921.39,714.75 910.22,726.59 906.49,730.83 904.63,730.83 906.49,726.59 913.01,718.97 916.74,714.75 923.25,709.66 "/>
     <polygon class="fil23" points="278.77,423.61 282.49,424.45 289.94,433.76 293.66,442.23 293.66,455.76 290.87,454.93 289.94,439.69 285.28,432.07 284.35,429.54 282.49,429.54 280.63,426.15 278.77,425.3 "/>
     <polygon class="fil26" points="274.11,333.05 284.35,333.9 285.28,334.75 285.28,347.44 284.35,349.98 282.49,349.98 280.63,337.29 278.77,337.29 278.77,335.59 274.11,335.59 "/>
     <polygon class="fil27" points="607.53,926.33 610.32,926.33 608.46,930.55 603.81,935.63 598.21,933.1 591.7,928.86 594.49,928.01 604.73,928.01 "/>
     <polygon class="fil14" points="829.19,793.45 831.05,794.29 818.95,803.61 815.22,806.99 813.36,806.99 813.36,808.69 805.91,812.92 804.05,812.07 817.08,801.06 "/>
     <polygon class="fil28" points="316.02,868.77 320.67,868.77 325.33,869.62 329.99,871.31 335.57,872.16 335.57,873.85 339.3,873.01 347.68,875.54 347.68,876.39 341.16,876.39 316.02,870.46 "/>
     <polygon class="fil29" points="986.59,574.25 988.46,575.1 976.35,597.11 973.55,597.11 980.07,585.26 982.86,578.49 "/>
     <polygon class="fil24" points="995.91,555.64 997.77,555.64 995.91,560.71 988.45,574.25 986.59,574.25 987.52,570.02 994.04,557.32 "/>
     <polygon class="fil17" points="480.87,889.09 494.84,889.09 509.74,890.78 509.74,891.63 487.38,891.63 479.93,890.78 "/>
     <polygon class="fil22" points="385.87,438 388.66,438.85 391.46,438 395.18,439.69 395.18,441.38 384,443.92 381.21,443.92 382.14,438.85 "/>
     <polygon class="fil14" points="957.72,668.19 957.72,670.74 950.27,681.74 945.61,685.97 947.47,680.89 "/>
     <polygon class="fil30" points="693.21,379.61 697.87,379.61 698.8,380.44 698.8,391.45 697.87,391.45 696.94,384.68 694.14,383.83 693.22,382.14 691.36,381.3 "/>
     <polygon class="fil31" points="1000.56,544.63 1002.42,547.18 997.77,555.64 995.91,555.64 996.83,550.56 "/>
     <polygon class="fil17" points="778.9,490.46 785.42,492.16 790.08,493.01 790.08,494.7 777.97,494.7 "/>
     <polygon class="fil32" points="283.42,350.83 284.35,350.83 284.35,355.91 282.49,357.59 274.11,356.75 277.83,354.22 282.49,353.37 "/>
     <polygon class="fil22" points="739.78,776.52 739.78,779.06 732.33,784.98 728.6,784.14 737.92,777.37 "/>
     <polygon class="fil14" points="979.14,638.58 980.07,641.11 974.48,648.73 971.69,650.42 973.55,646.19 "/>
     <polygon class="fil22" points="306.7,865.39 312.29,866.24 314.16,869.62 304.83,867.92 304.83,866.24 "/>
     <polygon class="fil33" points="990.32,566.63 992.18,566.63 990.32,571.72 988.46,574.25 986.59,574.25 987.52,570.02 "/>
     <polygon class="fil34" points="1025.71,540.41 1026.64,542.94 1024.77,544.63 "/>
     <polygon class="fil14" points="320.67,895.01 321.6,896.7 319.74,895.85 "/>
    </g>
   </g>
  </g>
  <path class="fil35" d="M557.23 0c307.75,0 557.23,233.42 557.23,521.36 0,287.94 -249.48,521.36 -557.23,521.36 -307.75,0 -557.23,-233.42 -557.23,-521.36 0,-287.94 249.48,-521.36 557.23,-521.36z"/>
 </g>
</svg>
